<?xml version="1.0" standalone="no"?>
<!DOCTYPE svg PUBLIC "-//W3C//DTD SVG 20010904//EN"
 "http://www.w3.org/TR/2001/REC-SVG-20010904/DTD/svg10.dtd">
<svg version="1.0" xmlns="http://www.w3.org/2000/svg"
 width="512.000000pt" height="512.000000pt" viewBox="0 0 512.000000 512.000000"
 preserveAspectRatio="xMidYMid meet">
<metadata>
Created by potrace 1.11, written by Peter Selinger 2001-2013
</metadata>
<g transform="translate(0.000000,512.000000) scale(0.100000,-0.100000)"
fill="#000000" stroke="none">
<path d="M74 4685 c-81 -48 -75 153 -72 -2137 3 -1989 3 -2044 22 -2071 37
-55 120 -80 182 -56 16 5 159 140 318 300 l290 289 2082 0 c1145 0 2095 3
2112 6 40 8 91 56 103 97 5 19 9 726 9 1755 0 1672 -1 1724 -19 1760 -11 22
-35 46 -59 60 l-40 22 -2443 0 -2444 0 -41 -25z m4746 -1825 l0 -1550 -2049 0
c-1345 0 -2059 -3 -2076 -10 -15 -6 -107 -90 -206 -188 -99 -97 -182 -179
-185 -181 -2 -2 -4 779 -4 1737 l0 1742 2260 0 2260 0 0 -1550z"/>
<path d="M862 3595 c-97 -27 -173 -94 -221 -195 l-26 -55 0 -485 0 -485 33
-67 c38 -77 92 -130 171 -167 l56 -26 685 0 685 0 55 26 c76 37 132 88 166
153 29 57 46 66 82 46 33 -18 390 -130 415 -130 57 0 108 36 132 93 13 31 15
115 15 553 0 374 -3 528 -12 557 -9 30 -23 47 -57 69 -25 15 -59 28 -76 28
-17 0 -130 -33 -251 -74 l-220 -73 -18 43 c-28 67 -89 129 -164 166 l-67 33
-665 2 c-553 2 -674 0 -718 -12z m1332 -301 c14 -13 16 -67 16 -434 0 -367 -2
-421 -16 -434 -14 -14 -85 -16 -632 -16 -497 1 -620 3 -634 14 -17 12 -18 45
-18 431 0 375 2 420 17 437 15 17 48 18 634 18 548 0 619 -2 633 -16z m616
-434 c0 -159 -1 -290 -2 -290 -2 0 -68 22 -148 49 l-145 48 0 193 0 193 140
48 c77 26 143 48 148 48 4 1 7 -129 7 -289z"/>
<path d="M1314 3003 c-27 -5 -76 -51 -91 -86 -29 -64 -2 -145 62 -182 41 -25
46 -25 262 -25 121 0 234 3 251 6 44 9 100 66 108 110 8 44 -9 106 -39 137
-42 44 -65 47 -305 46 -125 -1 -236 -4 -248 -6z"/>
<path d="M3486 3590 c-50 -32 -78 -87 -72 -142 6 -59 29 -94 77 -119 36 -18
62 -19 463 -19 489 0 487 0 533 77 44 75 19 164 -58 204 -36 18 -61 19 -476
18 -411 0 -440 -2 -467 -19z"/>
<path d="M3489 2990 c-52 -27 -73 -65 -74 -130 0 -43 5 -62 23 -85 51 -65 42
-64 520 -65 411 0 435 1 471 20 81 41 104 160 43 227 -47 52 -61 53 -521 53
-399 -1 -428 -2 -462 -20z"/>
<path d="M3495 2393 c-41 -21 -59 -42 -73 -82 -17 -48 -15 -76 9 -122 15 -30
32 -46 64 -60 42 -19 67 -19 482 -17 l438 3 31 24 c93 69 78 213 -28 256 -58
23 -879 22 -923 -2z"/>
</g>
</svg>
